solid OpenSCAD_Model
  facet normal -1 0 0
    outer loop
      vertex 0 -5.492792356648131 1.870537739299837
      vertex 0 -6.136270393953943 2.416217982626982
      vertex 0 -2 0.23470981649287176
    endloop
  endfacet
  facet normal -1 0 0
    outer loop
      vertex 0 -6.725822666400692 3.019756739050602
      vertex 0 -2 0.23470981649287176
      vertex 0 -6.136270393953943 2.416217982626982
    endloop
  endfacet
  facet normal -1 0 0
    outer loop
      vertex 0 -7.722945322876299 4.378732258366423
      vertex 0 -2 0.23470981649287176
      vertex 0 -7.2562681674200675 3.675850088278297
    endloop
  endfacet
  facet normal -1 0 0
    outer loop
      vertex 0 -7.722945322876299 4.378732258366423
      vertex 0 -8.121752957147296 5.122226295531268
      vertex 0 -2 0.23470981649287176
    endloop
  endfacet
  facet normal -1 0 0
    outer loop
      vertex 0 -8.121752957147296 5.122226295531268
      vertex 0 -8.449186334403478 5.899798347441007
      vertex 0 -2 0.23470981649287176
    endloop
  endfacet
  facet normal -1 0 0
    outer loop
      vertex 0 -8.449186334403478 5.899798347441007
      vertex 0 -8.702367958352255 6.704615082944908
      vertex 0 -2 0.23470981649287176
    endloop
  endfacet
  facet normal -1 0 0
    outer loop
      vertex 0 -7.2562681674200675 3.675850088278297
      vertex 0 -2 0.23470981649287176
      vertex 0 -6.725822666400692 3.019756739050602
    endloop
  endfacet
  facet normal -1 0 0
    outer loop
      vertex 0 -8.702367958352255 6.704615082944908
      vertex 0 -8.879072859778917 7.529603743633226
      vertex 0 -2 0.23470981649287176
    endloop
  endfacet
  facet normal -1 0 0
    outer loop
      vertex 0 -4.801043462612133 1.3875114666681245
      vertex 0 -2 0.23470981649287176
      vertex 0 -4.067102825999403 0.9713840169835208
    endloop
  endfacet
  facet normal -1 0 0
    outer loop
      vertex 0 -5.492792356648131 1.870537739299837
      vertex 0 -2 0.23470981649287176
      vertex 0 -4.801043462612133 1.3875114666681245
    endloop
  endfacet
  facet normal -1 0 0
    outer loop
      vertex 0 -4.067102825999403 0.9713840169835208
      vertex 0 -2 0.23470981649287176
      vertex 0 -3.297420343514213 0.6258123332362189
    endloop
  endfacet
  facet normal -1 0 0
    outer loop
      vertex 0 -3.297420343514213 0.6258123332362189
      vertex 0 -2 0.23470981649287176
      vertex 0 -2.498760012487501 0.3538333118084367
    endloop
  endfacet
  facet normal 2.706338021276752e-17 -0.2323053566349836 -0.972642905324813
    outer loop
      vertex 0 -2.498760012487501 0.3538333118084367
      vertex 0 -2 0.23470981649287176
      vertex 1 -2 0.2347098164928718
    endloop
  endfacet
  facet normal 0 1 0
    outer loop
      vertex 1 -2 3.25
      vertex 1 -2 0.2347098164928718
      vertex 0 -2 0.23470981649287176
    endloop
  endfacet
  facet normal 0 1 0
    outer loop
      vertex 1 -2 3.25
      vertex 0 -2 0.23470981649287176
      vertex 1 -2 7.5
    endloop
  endfacet
  facet normal -1 0 0
    outer loop
      vertex 0 -8.879072859778917 7.529603743633226
      vertex 0 -2 7.5
      vertex 0 -2 0.23470981649287176
    endloop
  endfacet
  facet normal -1 0 0
    outer loop
      vertex 0 -8.879072859778917 7.529603743633226
      vertex 0 -8.97774814965609 8.367514299492361
      vertex 0 8.879072859778919 7.529603743633228
    endloop
  endfacet
  facet normal -1 0 0
    outer loop
      vertex 0 -8.97774814965609 8.367514299492361
      vertex 0 -8.997526665988342 9.210983162429345
      vertex 0 8.97774814965609 8.367514299492365
    endloop
  endfacet
  facet normal 0 1 0
    outer loop
      vertex 1 -2 7.5
      vertex 0 -2 0.23470981649287176
      vertex 0 -2 7.5
    endloop
  endfacet
  facet normal -1 0 0
    outer loop
      vertex 0 -8.879072859778917 7.529603743633226
      vertex 0 8.879072859778919 7.529603743633228
      vertex 0 -2 7.5
    endloop
  endfacet
  facet normal 0 0 -1
    outer loop
      vertex 1 -2 7.5
      vertex 0 -2 7.5
      vertex 1 2 7.5
    endloop
  endfacet
  facet normal 0 -0.8330941881540913 -0.5531311541251999
    outer loop
      vertex 0 -7.722945322876299 4.378732258366423
      vertex 0 -7.2562681674200675 3.675850088278297
      vertex 3.5 -7.722945322876299 4.378732258366423
    endloop
  endfacet
  facet normal 0 -0.7776375321337519 -0.6287128665908851
    outer loop
      vertex 0 -7.2562681674200675 3.675850088278297
      vertex 0 -6.725822666400692 3.019756739050602
      vertex 3.5 -7.2562681674200675 3.675850088278297
    endloop
  endfacet
  facet normal 0 -0.6467699120171992 -0.7626851781103815
    outer loop
      vertex 0 -5.492792356648131 1.870537739299837
      vertex 3.5 -6.136270393953943 2.416217982626982
      vertex 0 -6.136270393953943 2.416217982626982
    endloop
  endfacet
  facet normal 0 -0.5725090172720712 -0.8198984236734251
    outer loop
      vertex 0 -5.492792356648131 1.870537739299837
      vertex 0 -4.801043462612133 1.3875114666681245
      vertex 3.5 -5.492792356648131 1.870537739299837
    endloop
  endfacet
  facet normal 0 -0.4932168926979077 -0.8699063724087902
    outer loop
      vertex 0 -4.801043462612133 1.3875114666681245
      vertex 0 -4.067102825999403 0.9713840169835208
      vertex 3.5 -4.801043462612133 1.3875114666681245
    endloop
  endfacet
  facet normal 0 -0.7153469695201277 -0.6987694277788414
    outer loop
      vertex 0 -6.725822666400692 3.019756739050602
      vertex 0 -6.136270393953943 2.416217982626982
      vertex 3.5 -6.725822666400692 3.019756739050602
    endloop
  endfacet
  facet normal 0 0 1
    outer loop
      vertex 1 -5.75 3.25
      vertex 2.25 -5.75 3.25
      vertex 1 -2 3.25
    endloop
  endfacet
  facet normal 0 -0.881229582494029 -0.47268850518856403
    outer loop
      vertex 0 -7.722945322876299 4.378732258366423
      vertex 3.5 -8.121752957147296 5.122226295531268
      vertex 0 -8.121752957147296 5.122226295531268
    endloop
  endfacet
  facet normal 0 -0.9539125808147789 -0.3000846350003414
    outer loop
      vertex 0 -8.449186334403478 5.899798347441007
      vertex 3.5 -8.702367958352255 6.704615082944908
      vertex 0 -8.702367958352255 6.704615082944908
    endloop
  endfacet
  facet normal 0 -0.9216206995773374 -0.3880918526722499
    outer loop
      vertex 0 -8.121752957147296 5.122226295531268
      vertex 3.5 -8.449186334403478 5.899798347441007
      vertex 0 -8.449186334403478 5.899798347441007
    endloop
  endfacet
  facet normal 0 -0.9778214439929453 -0.2094402627661433
    outer loop
      vertex 0 -8.702367958352255 6.704615082944908
      vertex 3.5 -8.879072859778917 7.529603743633226
      vertex 0 -8.879072859778917 7.529603743633226
    endloop
  endfacet
  facet normal 0 -0.9931371771625542 -0.11695532197208314
    outer loop
      vertex 0 -8.879072859778917 7.529603743633226
      vertex 3.5 -8.97774814965609 8.367514299492361
      vertex 0 -8.97774814965609 8.367514299492361
    endloop
  endfacet
  facet normal 0 -0.9997251851098159 -0.023442573603260027
    outer loop
      vertex 0 -8.97774814965609 8.367514299492361
      vertex 3.5 -8.997526665988342 9.210983162429345
      vertex 0 -8.997526665988342 9.210983162429345
    endloop
  endfacet
  facet normal 1 0 0
    outer loop
      vertex 1 -5.75 3.25
      vertex 1 -2 7.5
      vertex 1 -5.75 14.75
    endloop
  endfacet
  facet normal 0 -0.40959036033650686 -0.9122695526648965
    outer loop
      vertex 0 -4.067102825999403 0.9713840169835208
      vertex 0 -3.297420343514213 0.6258123332362189
      vertex 3.5 -4.067102825999403 0.9713840169835208
    endloop
  endfacet
  facet normal 0 -0.3223643331611529 -0.9466156752904344
    outer loop
      vertex 0 -3.297420343514213 0.6258123332362189
      vertex 0 -2.498760012487501 0.3538333118084367
      vertex 3.5 -3.297420343514213 0.6258123332362189
    endloop
  endfacet
  facet normal -1 0 0
    outer loop
      vertex 1 -2 3.25
      vertex 1 -1.6781404886251337 0.15783711411981471
      vertex 1 -2 0.2347098164928718
    endloop
  endfacet
  facet normal -1 0 0
    outer loop
      vertex 1 -2 3.25
      vertex 1 -0.8427734058091585 0.03954616180291737
      vertex 1 -1.6781404886251337 0.15783711411981471
    endloop
  endfacet
  facet normal -1 0 0
    outer loop
      vertex 1 -2 3.25
      vertex 1 0 0
      vertex 1 -0.8427734058091585 0.03954616180291737
    endloop
  endfacet
  facet normal 0 -0.23230535663498353 -0.9726429053248129
    outer loop
      vertex 0 -2.498760012487501 0.3538333118084367
      vertex 1 -2 0.2347098164928718
      vertex 3.5 -2.498760012487501 0.3538333118084367
    endloop
  endfacet
  facet normal 0 0 1
    outer loop
      vertex 1 -2 3.25
      vertex 2.25 -5.75 3.25
      vertex 1 2 3.25
    endloop
  endfacet
  facet normal 1 0 0
    outer loop
      vertex 1 -5.75 3.25
      vertex 1 -2 3.25
      vertex 1 -2 7.5
    endloop
  endfacet
  facet normal 0 -0.6103102618497901 0.7921624734111309
    outer loop
      vertex 0 -5.820929208154787 15.86416660299344
      vertex 1 -5.152581155448648 16.37908581306082
      vertex 0 -5.152581155448648 16.37908581306082
    endloop
  endfacet
  facet normal 0 -0.5334492736235733 0.8458320592590955
    outer loop
      vertex 0 -5.152581155448648 16.37908581306082
      vertex 1 -4.438952034281165 16.829157351679115
      vertex 0 -4.438952034281165 16.829157351679115
    endloop
  endfacet
  facet normal 7.084616067934809e-16 -0.6103102618497906 0.7921624734111303
    outer loop
      vertex 0 -5.820929208154787 15.86416660299344
      vertex 1 -5.75 15.91881299821504
      vertex 1 -5.152581155448648 16.37908581306082
    endloop
  endfacet
  facet normal 0 -0.5334492736235733 0.8458320592590955
    outer loop
      vertex 0 -5.152581155448648 16.37908581306082
      vertex 1 -5.152581155448648 16.37908581306082
      vertex 1 -4.438952034281165 16.829157351679115
    endloop
  endfacet
  facet normal -1 0 0
    outer loop
      vertex 0 -8.997526665988342 9.210983162429345
      vertex 0 -8.938234594462987 10.052597897748743
      vertex 0 8.997526665988342 9.210983162429345
    endloop
  endfacet
  facet normal -1 0 0
    outer loop
      vertex 0 -8.938234594462987 10.052597897748743
      vertex 0 -8.800392995936505 10.884962364895303
      vertex 0 8.938234594462989 10.052597897748742
    endloop
  endfacet
  facet normal -1 0 0
    outer loop
      vertex 0 -8.800392995936505 10.884962364895303
      vertex 0 -8.58521322733301 11.700761715003066
      vertex 0 8.800392995936505 10.884962364895298
    endloop
  endfacet
  facet normal -1 0 0
    outer loop
      vertex 0 -8.58521322733301 11.700761715003066
      vertex 0 -8.294586296196037 12.492826674050246
      vertex 0 8.58521322733301 11.700761715003066
    endloop
  endfacet
  facet normal -1 0 0
    outer loop
      vertex 0 -8.294586296196037 12.492826674050246
      vertex 0 -7.931066242446256 13.254196546697088
      vertex 0 8.294586296196037 12.492826674050248
    endloop
  endfacet
  facet normal -1 0 0
    outer loop
      vertex 0 -7.931066242446256 13.254196546697088
      vertex 0 -7.497847693386823 13.978180387126795
      vertex 0 7.931066242446256 13.254196546697088
    endloop
  endfacet
  facet normal -1 0 0
    outer loop
      vertex 0 -7.497847693386823 13.978180387126795
      vertex 0 -6.99873778920377 14.658415799317963
      vertex 0 7.497847693386823 13.978180387126795
    endloop
  endfacet
  facet normal 0 -0.45190031399993347 0.8920684425573867
    outer loop
      vertex 0 -4.438952034281165 16.829157351679115
      vertex 1 -3.6863132430285557 17.210425973984073
      vertex 0 -3.6863132430285557 17.210425973984073
    endloop
  endfacet
  facet normal 0 -0.36638003816824655 0.9304652963070864
    outer loop
      vertex 0 -3.6863132430285557 17.210425973984073
      vertex 1 -2.901278998450385 17.51954107761391
      vertex 0 -2.901278998450385 17.51954107761391
    endloop
  endfacet
  facet normal 0 -0.2776400013874993 0.9606851875768406
    outer loop
      vertex 0 -2.901278998450385 17.51954107761391
      vertex 1 -2.0907482097148486 17.753786147923318
      vertex 0 -2.0907482097148486 17.753786147923318
    endloop
  endfacet
  facet normal -1 0 0
    outer loop
      vertex 0 -6.99873778920377 14.658415799317963
      vertex 0 -6.438122725681148 15.288924850009574
      vertex 0 6.99873778920377 14.658415799317963
    endloop
  endfacet
  facet normal -1 0 0
    outer loop
      vertex 0 -6.438122725681148 15.288924850009574
      vertex 0 -5.820929208154787 15.86416660299344
      vertex 0 6.438122725681148 15.288924850009574
    endloop
  endfacet
  facet normal -1 0 0
    outer loop
      vertex 0 -5.820929208154787 15.86416660299344
      vertex 0 -5.152581155448648 16.37908581306082
      vertex 0 5.820929208154787 15.86416660299344
    endloop
  endfacet
  facet normal -1 0 0
    outer loop
      vertex 0 -5.152581155448648 16.37908581306082
      vertex 0 -4.438952034281165 16.829157351679115
      vertex 0 5.152581155448648 16.37908581306082
    endloop
  endfacet
  facet normal -1 0 0
    outer loop
      vertex 0 -4.438952034281165 16.829157351679115
      vertex 0 -3.6863132430285557 17.210425973984073
      vertex 0 4.438952034281165 16.829157351679115
    endloop
  endfacet
  facet normal -1 0 0
    outer loop
      vertex 0 -3.6863132430285557 17.210425973984073
      vertex 0 -2.901278998450385 17.51954107761391
      vertex 0 3.6863132430285557 17.210425973984073
    endloop
  endfacet
  facet normal -1 0 0
    outer loop
      vertex 0 -2.901278998450385 17.51954107761391
      vertex 0 -2.0907482097148486 17.753786147923318
      vertex 0 2.901278998450385 17.51954107761391
    endloop
  endfacet
  facet normal -1 0 0
    outer loop
      vertex 0 -2.0907482097148486 17.753786147923318
      vertex 0 -1.2618438505369696 17.91110263081186
      vertex 0 2.0907482097148486 17.753786147923318
    endloop
  endfacet
  facet normal -1 0 0
    outer loop
      vertex 0 -1.2618438505369696 17.91110263081186
      vertex 0 -0.4218503622294614 17.990108023371405
      vertex 0 1.2618438505369696 17.91110263081186
    endloop
  endfacet
  facet normal 0 -0.1864600542916831 0.9824625428755758
    outer loop
      vertex 0 -2.0907482097148486 17.753786147923318
      vertex 1 -1.2618438505369696 17.91110263081186
      vertex 0 -1.2618438505369696 17.91110263081186
    endloop
  endfacet
  facet normal 0 -0.09364148953435131 0.9956059820218981
    outer loop
      vertex 0 -1.2618438505369696 17.91110263081186
      vertex 1 -0.4218503622294614 17.990108023371405
      vertex 0 -0.4218503622294614 17.990108023371405
    endloop
  endfacet
  facet normal 0 -0.45190031399993347 0.8920684425573867
    outer loop
      vertex 0 -4.438952034281165 16.829157351679115
      vertex 1 -4.438952034281165 16.829157351679115
      vertex 1 -3.6863132430285557 17.210425973984073
    endloop
  endfacet
  facet normal 0 -0.36638003816824655 0.9304652963070864
    outer loop
      vertex 0 -3.6863132430285557 17.210425973984073
      vertex 1 -3.6863132430285557 17.210425973984073
      vertex 1 -2.901278998450385 17.51954107761391
    endloop
  endfacet
  facet normal 0 -0.2776400013874993 0.9606851875768406
    outer loop
      vertex 0 -2.901278998450385 17.51954107761391
      vertex 1 -2.901278998450385 17.51954107761391
      vertex 1 -2.0907482097148486 17.753786147923318
    endloop
  endfacet
  facet normal 0 -0.1864600542916831 0.9824625428755758
    outer loop
      vertex 0 -2.0907482097148486 17.753786147923318
      vertex 1 -2.0907482097148486 17.753786147923318
      vertex 1 -1.2618438505369696 17.91110263081186
    endloop
  endfacet
  facet normal 0 -0.09364148953435131 0.9956059820218981
    outer loop
      vertex 0 -1.2618438505369696 17.91110263081186
      vertex 1 -1.2618438505369696 17.91110263081186
      vertex 1 -0.4218503622294614 17.990108023371405
    endloop
  endfacet
  facet normal 0 0 1
    outer loop
      vertex 0 -0.4218503622294614 17.990108023371405
      vertex 1 -0.4218503622294614 17.990108023371405
      vertex 1 0.4218503622294614 17.990108023371405
    endloop
  endfacet
  facet normal 0 -0.99752757218401 0.07027618894529276
    outer loop
      vertex 0 -8.997526665988342 9.210983162429345
      vertex 3.5 -8.938234594462987 10.052597897748743
      vertex 0 -8.938234594462987 10.052597897748743
    endloop
  endfacet
  facet normal 0 -0.9865636510865465 0.16337736181853021
    outer loop
      vertex 0 -8.938234594462987 10.052597897748743
      vertex 3.5 -8.800392995936505 10.884962364895303
      vertex 0 -8.800392995936505 10.884962364895303
    endloop
  endfacet
  facet normal 0 -0.9669297731502505 0.2550427685616766
    outer loop
      vertex 0 -8.800392995936505 10.884962364895303
      vertex 3.5 -8.58521322733301 11.700761715003066
      vertex 0 -8.58521322733301 11.700761715003066
    endloop
  endfacet
  facet normal 0 -0.9387984816003865 0.3444668502843325
    outer loop
      vertex 0 -8.58521322733301 11.700761715003066
      vertex 3.5 -8.294586296196037 12.492826674050246
      vertex 0 -8.294586296196037 12.492826674050246
    endloop
  endfacet
  facet normal 0 -0.9024169952385886 0.4308637449409697
    outer loop
      vertex 0 -8.294586296196037 12.492826674050246
      vertex 3.5 -7.931066242446256 13.254196546697088
      vertex 0 -7.931066242446256 13.254196546697088
    endloop
  endfacet
  facet normal 0 1 0
    outer loop
      vertex 1 -5.75 3.25
      vertex 1 -5.75 14.75
      vertex 2.25 -5.75 14.75
    endloop
  endfacet
  facet normal 0 -0.8581050358751433 0.5134741935148435
    outer loop
      vertex 0 -7.931066242446256 13.254196546697088
      vertex 3.5 -7.497847693386823 13.978180387126795
      vertex 0 -7.497847693386823 13.978180387126795
    endloop
  endfacet
  facet normal 0 -0.8062520186022312 0.5915722124135206
    outer loop
      vertex 0 -7.497847693386823 13.978180387126795
      vertex 3.5 -6.99873778920377 14.658415799317963
      vertex 0 -6.99873778920377 14.658415799317963
    endloop
  endfacet
  facet normal 1 0 0
    outer loop
      vertex 1 -5.75 14.75
      vertex 1 -5.152581155448648 16.37908581306082
      vertex 1 -5.75 15.91881299821504
    endloop
  endfacet
  facet normal 0 -0.7473136296000763 0.6644714734388227
    outer loop
      vertex 0 -6.99873778920377 14.658415799317963
      vertex 3.5 -6.438122725681148 15.288924850009574
      vertex 0 -6.438122725681148 15.288924850009574
    endloop
  endfacet
  facet normal 0 -0.6818078215504385 0.7315313352636682
    outer loop
      vertex 0 -6.438122725681148 15.288924850009574
      vertex 3.5 -5.820929208154787 15.86416660299344
      vertex 0 -5.820929208154787 15.86416660299344
    endloop
  endfacet
  facet normal 1 0 0
    outer loop
      vertex 1 -5.75 14.75
      vertex 1 -4.438952034281165 16.829157351679115
      vertex 1 -5.152581155448648 16.37908581306082
    endloop
  endfacet
  facet normal 1 0 0
    outer loop
      vertex 1 -5.75 14.75
      vertex 1 -3.6863132430285557 17.210425973984073
      vertex 1 -4.438952034281165 16.829157351679115
    endloop
  endfacet
  facet normal 0 1 0
    outer loop
      vertex 1 -5.75 14.75
      vertex 1 -5.75 15.91881299821504
      vertex 2.25 -5.75 14.75
    endloop
  endfacet
  facet normal 0 -0.6103102618497844 0.7921624734111353
    outer loop
      vertex 0 -5.820929208154787 15.86416660299344
      vertex 3.5 -5.820929208154787 15.86416660299344
      vertex 1 -5.75 15.91881299821504
    endloop
  endfacet
  facet normal 1 0 0
    outer loop
      vertex 1 -2 7.5
      vertex 1 2 7.5
      vertex 1 -5.75 14.75
    endloop
  endfacet
  facet normal 1 0 0
    outer loop
      vertex 1 -5.75 14.75
      vertex 1 -2.901278998450385 17.51954107761391
      vertex 1 -3.6863132430285557 17.210425973984073
    endloop
  endfacet
  facet normal 1 0 0
    outer loop
      vertex 1 -5.75 14.75
      vertex 1 -2.0907482097148486 17.753786147923318
      vertex 1 -2.901278998450385 17.51954107761391
    endloop
  endfacet
  facet normal 1 0 0
    outer loop
      vertex 1 -5.75 14.75
      vertex 1 -1.2618438505369696 17.91110263081186
      vertex 1 -2.0907482097148486 17.753786147923318
    endloop
  endfacet
  facet normal 1 0 0
    outer loop
      vertex 1 -5.75 14.75
      vertex 1 -0.4218503622294614 17.990108023371405
      vertex 1 -1.2618438505369696 17.91110263081186
    endloop
  endfacet
  facet normal 1 0 0
    outer loop
      vertex 1 -5.75 14.75
      vertex 1 0.4218503622294614 17.990108023371405
      vertex 1 -0.4218503622294614 17.990108023371405
    endloop
  endfacet
  facet normal 1 0 0
    outer loop
      vertex 1 -5.75 14.75
      vertex 1 1.2618438505369696 17.91110263081186
      vertex 1 0.4218503622294614 17.990108023371405
    endloop
  endfacet
  facet normal 1 0 0
    outer loop
      vertex 1 -5.75 14.75
      vertex 1 2.0907482097148486 17.753786147923318
      vertex 1 1.2618438505369696 17.91110263081186
    endloop
  endfacet
  facet normal 1 0 0
    outer loop
      vertex 1 -5.75 14.75
      vertex 1 2.901278998450385 17.51954107761391
      vertex 1 2.0907482097148486 17.753786147923318
    endloop
  endfacet
  facet normal 2.7063380212767306e-17 0.2323053566349837 -0.972642905324813
    outer loop
      vertex 0 2.498760012487505 0.35383331180843847
      vertex 1 2 0.23470981649287256
      vertex 0 2 0.23470981649287254
    endloop
  endfacet
  facet normal -1 0 0
    outer loop
      vertex 0 2.498760012487505 0.35383331180843847
      vertex 0 2 0.23470981649287254
      vertex 0 2 7.5
    endloop
  endfacet
  facet normal 0 -1 0
    outer loop
      vertex 1 2 3.25
      vertex 0 2 7.5
      vertex 0 2 0.23470981649287254
    endloop
  endfacet
  facet normal -1 0 0
    outer loop
      vertex 0 2.498760012487505 0.35383331180843847
      vertex 0 2 7.5
      vertex 0 3.297420343514216 0.6258123332362207
    endloop
  endfacet
  facet normal -1 0 0
    outer loop
      vertex 0 3.297420343514216 0.6258123332362207
      vertex 0 2 7.5
      vertex 0 4.067102825999405 0.9713840169835208
    endloop
  endfacet
  facet normal -1 0 0
    outer loop
      vertex 0 4.067102825999405 0.9713840169835208
      vertex 0 2 7.5
      vertex 0 4.8010434626121326 1.3875114666681228
    endloop
  endfacet
  facet normal -1 0 0
    outer loop
      vertex 0 4.8010434626121326 1.3875114666681228
      vertex 0 2 7.5
      vertex 0 5.4927923566481285 1.8705377392998361
    endloop
  endfacet
  facet normal 0 -1 0
    outer loop
      vertex 1 2 3.25
      vertex 0 2 0.23470981649287254
      vertex 1 2 0.23470981649287256
    endloop
  endfacet
  facet normal 0 0 -1
    outer loop
      vertex 1 2 7.5
      vertex 0 -2 7.5
      vertex 0 2 7.5
    endloop
  endfacet
  facet normal -1 0 0
    outer loop
      vertex 0 8.879072859778919 7.529603743633228
      vertex 0 2 7.5
      vertex 0 -2 7.5
    endloop
  endfacet
  facet normal -1 0 0
    outer loop
      vertex 0 -8.97774814965609 8.367514299492361
      vertex 0 8.97774814965609 8.367514299492365
      vertex 0 8.879072859778919 7.529603743633228
    endloop
  endfacet
  facet normal -1 0 0
    outer loop
      vertex 0 -8.997526665988342 9.210983162429345
      vertex 0 8.997526665988342 9.210983162429345
      vertex 0 8.97774814965609 8.367514299492365
    endloop
  endfacet
  facet normal 0 -1 0
    outer loop
      vertex 1 2 3.25
      vertex 1 2 7.5
      vertex 0 2 7.5
    endloop
  endfacet
  facet normal -1 0 0
    outer loop
      vertex 0 5.4927923566481285 1.8705377392998361
      vertex 0 2 7.5
      vertex 0 6.136270393953939 2.4162179826269794
    endloop
  endfacet
  facet normal -1 0 0
    outer loop
      vertex 0 6.136270393953939 2.4162179826269794
      vertex 0 2 7.5
      vertex 0 6.725822666400694 3.019756739050605
    endloop
  endfacet
  facet normal -1 0 0
    outer loop
      vertex 0 6.725822666400694 3.019756739050605
      vertex 0 2 7.5
      vertex 0 7.256268167420068 3.675850088278299
    endloop
  endfacet
  facet normal -1 0 0
    outer loop
      vertex 0 7.256268167420068 3.675850088278299
      vertex 0 2 7.5
      vertex 0 7.722945322876299 4.378732258366423
    endloop
  endfacet
  facet normal -1 0 0
    outer loop
      vertex 0 7.722945322876299 4.378732258366423
      vertex 0 2 7.5
      vertex 0 8.121752957147296 5.1222262955312665
    endloop
  endfacet
  facet normal -1 0 0
    outer loop
      vertex 0 8.121752957147296 5.1222262955312665
      vertex 0 2 7.5
      vertex 0 8.449186334403477 5.8997983474410045
    endloop
  endfacet
  facet normal -1 0 0
    outer loop
      vertex 0 8.449186334403477 5.8997983474410045
      vertex 0 2 7.5
      vertex 0 8.702367958352255 6.704615082944912
    endloop
  endfacet
  facet normal -1 0 0
    outer loop
      vertex 0 8.702367958352255 6.704615082944912
      vertex 0 2 7.5
      vertex 0 8.879072859778919 7.529603743633228
    endloop
  endfacet
  facet normal -1 0 0
    outer loop
      vertex 1 2 3.25
      vertex 1 0.842773405809157 0.03954616180291737
      vertex 1 0 0
    endloop
  endfacet
  facet normal -1 0 0
    outer loop
      vertex 1 -2 3.25
      vertex 1 2 3.25
      vertex 1 0 0
    endloop
  endfacet
  facet normal -1 0 0
    outer loop
      vertex 1 2 3.25
      vertex 1 1.6781404886251308 0.15783711411981471
      vertex 1 0.842773405809157 0.03954616180291737
    endloop
  endfacet
  facet normal -1 0 0
    outer loop
      vertex 1 2 3.25
      vertex 1 2 0.23470981649287256
      vertex 1 1.6781404886251308 0.15783711411981471
    endloop
  endfacet
  facet normal 0 0.32236433316115326 -0.9466156752904344
    outer loop
      vertex 0 2.498760012487505 0.35383331180843847
      vertex 0 3.297420343514216 0.6258123332362207
      vertex 3.5 2.498760012487505 0.35383331180843847
    endloop
  endfacet
  facet normal 0 0.40959036033650564 -0.9122695526648971
    outer loop
      vertex 0 3.297420343514216 0.6258123332362207
      vertex 0 4.067102825999405 0.9713840169835208
      vertex 3.5 3.297420343514216 0.6258123332362207
    endloop
  endfacet
  facet normal 0 0.4932168926979074 -0.8699063724087903
    outer loop
      vertex 0 4.067102825999405 0.9713840169835208
      vertex 0 4.8010434626121326 1.3875114666681228
      vertex 3.5 4.067102825999405 0.9713840169835208
    endloop
  endfacet
  facet normal -2.918387154576064e-17 0.23230535663498358 -0.9726429053248129
    outer loop
      vertex 0 2.498760012487505 0.35383331180843847
      vertex 3.5 1.6781404886251308 0.15783711411981471
      vertex 1 2 0.23470981649287256
    endloop
  endfacet
  facet normal 0 0 1
    outer loop
      vertex 1 2 3.25
      vertex 2.25 -5.75 3.25
      vertex 1 5.75 3.25
    endloop
  endfacet
  facet normal 1 0 0
    outer loop
      vertex 1 2 3.25
      vertex 1 5.75 3.25
      vertex 1 2 7.5
    endloop
  endfacet
  facet normal 0 0.5725090172720728 -0.8198984236734239
    outer loop
      vertex 0 4.8010434626121326 1.3875114666681228
      vertex 0 5.4927923566481285 1.8705377392998361
      vertex 3.5 4.8010434626121326 1.3875114666681228
    endloop
  endfacet
  facet normal 0 0.6467699120171986 -0.7626851781103821
    outer loop
      vertex 0 5.4927923566481285 1.8705377392998361
      vertex 0 6.136270393953939 2.4162179826269794
      vertex 3.5 5.4927923566481285 1.8705377392998361
    endloop
  endfacet
  facet normal 0 0.7153469695201277 -0.6987694277788415
    outer loop
      vertex 0 6.136270393953939 2.4162179826269794
      vertex 0 6.725822666400694 3.019756739050605
      vertex 3.5 6.136270393953939 2.4162179826269794
    endloop
  endfacet
  facet normal 0 0.777637532133752 -0.628712866590885
    outer loop
      vertex 0 6.725822666400694 3.019756739050605
      vertex 0 7.256268167420068 3.675850088278299
      vertex 3.5 6.725822666400694 3.019756739050605
    endloop
  endfacet
  facet normal 0 0.8330941881540912 -0.5531311541252002
    outer loop
      vertex 0 7.256268167420068 3.675850088278299
      vertex 0 7.722945322876299 4.378732258366423
      vertex 3.5 7.256268167420068 3.675850088278299
    endloop
  endfacet
  facet normal 1 0 0
    outer loop
      vertex 1 2 7.5
      vertex 1 5.75 3.25
      vertex 1 5.75 14.75
    endloop
  endfacet
  facet normal 0 0.8812295824940286 -0.4726885051885649
    outer loop
      vertex 0 7.722945322876299 4.378732258366423
      vertex 0 8.121752957147296 5.1222262955312665
      vertex 3.5 7.722945322876299 4.378732258366423
    endloop
  endfacet
  facet normal 0 0.9216206995773379 -0.3880918526722485
    outer loop
      vertex 0 8.121752957147296 5.1222262955312665
      vertex 0 8.449186334403477 5.8997983474410045
      vertex 3.5 8.121752957147296 5.1222262955312665
    endloop
  endfacet
  facet normal 0 0.9539125808147789 -0.30008463500034116
    outer loop
      vertex 0 8.449186334403477 5.8997983474410045
      vertex 0 8.702367958352255 6.704615082944912
      vertex 3.5 8.449186334403477 5.8997983474410045
    endloop
  endfacet
  facet normal 0 0.9778214439929449 -0.20944026276614575
    outer loop
      vertex 0 8.702367958352255 6.704615082944912
      vertex 0 8.879072859778919 7.529603743633228
      vertex 3.5 8.702367958352255 6.704615082944912
    endloop
  endfacet
  facet normal 0 0.9931371771625543 -0.1169553219720808
    outer loop
      vertex 0 8.879072859778919 7.529603743633228
      vertex 0 8.97774814965609 8.367514299492365
      vertex 3.5 8.879072859778919 7.529603743633228
    endloop
  endfacet
  facet normal 0 0.9997251851098159 -0.023442573603260127
    outer loop
      vertex 0 8.97774814965609 8.367514299492365
      vertex 0 8.997526665988342 9.210983162429345
      vertex 3.5 8.97774814965609 8.367514299492365
    endloop
  endfacet
  facet normal 0 -1 0
    outer loop
      vertex 1 5.75 3.25
      vertex 2.25 5.75 3.25
      vertex 1 5.75 14.75
    endloop
  endfacet
  facet normal -1 0 0
    outer loop
      vertex 0 -8.938234594462987 10.052597897748743
      vertex 0 8.938234594462989 10.052597897748742
      vertex 0 8.997526665988342 9.210983162429345
    endloop
  endfacet
  facet normal -1 0 0
    outer loop
      vertex 0 -8.800392995936505 10.884962364895303
      vertex 0 8.800392995936505 10.884962364895298
      vertex 0 8.938234594462989 10.052597897748742
    endloop
  endfacet
  facet normal -1 0 0
    outer loop
      vertex 0 -8.58521322733301 11.700761715003066
      vertex 0 8.58521322733301 11.700761715003066
      vertex 0 8.800392995936505 10.884962364895298
    endloop
  endfacet
  facet normal -1 0 0
    outer loop
      vertex 0 -8.294586296196037 12.492826674050246
      vertex 0 8.294586296196037 12.492826674050248
      vertex 0 8.58521322733301 11.700761715003066
    endloop
  endfacet
  facet normal -1 0 0
    outer loop
      vertex 0 -7.931066242446256 13.254196546697088
      vertex 0 7.931066242446256 13.254196546697088
      vertex 0 8.294586296196037 12.492826674050248
    endloop
  endfacet
  facet normal -1 0 0
    outer loop
      vertex 0 -5.820929208154787 15.86416660299344
      vertex 0 5.820929208154787 15.86416660299344
      vertex 0 6.438122725681148 15.288924850009574
    endloop
  endfacet
  facet normal -1 0 0
    outer loop
      vertex 0 -0.4218503622294614 17.990108023371405
      vertex 0 0.4218503622294614 17.990108023371405
      vertex 0 1.2618438505369696 17.91110263081186
    endloop
  endfacet
  facet normal -1 0 0
    outer loop
      vertex 0 -1.2618438505369696 17.91110263081186
      vertex 0 1.2618438505369696 17.91110263081186
      vertex 0 2.0907482097148486 17.753786147923318
    endloop
  endfacet
  facet normal -1 0 0
    outer loop
      vertex 0 -2.0907482097148486 17.753786147923318
      vertex 0 2.0907482097148486 17.753786147923318
      vertex 0 2.901278998450385 17.51954107761391
    endloop
  endfacet
  facet normal -1 0 0
    outer loop
      vertex 0 -5.152581155448648 16.37908581306082
      vertex 0 5.152581155448648 16.37908581306082
      vertex 0 5.820929208154787 15.86416660299344
    endloop
  endfacet
  facet normal -1 0 0
    outer loop
      vertex 0 -4.438952034281165 16.829157351679115
      vertex 0 4.438952034281165 16.829157351679115
      vertex 0 5.152581155448648 16.37908581306082
    endloop
  endfacet
  facet normal -1 0 0
    outer loop
      vertex 0 -2.901278998450385 17.51954107761391
      vertex 0 2.901278998450385 17.51954107761391
      vertex 0 3.6863132430285557 17.210425973984073
    endloop
  endfacet
  facet normal -1 0 0
    outer loop
      vertex 0 -3.6863132430285557 17.210425973984073
      vertex 0 3.6863132430285557 17.210425973984073
      vertex 0 4.438952034281165 16.829157351679115
    endloop
  endfacet
  facet normal 0 0 1
    outer loop
      vertex 0 -0.4218503622294614 17.990108023371405
      vertex 1 0.4218503622294614 17.990108023371405
      vertex 0 0.4218503622294614 17.990108023371405
    endloop
  endfacet
  facet normal 0 0.09364148953435131 0.9956059820218981
    outer loop
      vertex 0 0.4218503622294614 17.990108023371405
      vertex 1 1.2618438505369696 17.91110263081186
      vertex 0 1.2618438505369696 17.91110263081186
    endloop
  endfacet
  facet normal 0 0.1864600542916831 0.9824625428755758
    outer loop
      vertex 0 1.2618438505369696 17.91110263081186
      vertex 1 2.0907482097148486 17.753786147923318
      vertex 0 2.0907482097148486 17.753786147923318
    endloop
  endfacet
  facet normal -1 0 0
    outer loop
      vertex 0 -7.497847693386823 13.978180387126795
      vertex 0 7.497847693386823 13.978180387126795
      vertex 0 7.931066242446256 13.254196546697088
    endloop
  endfacet
  facet normal -1 0 0
    outer loop
      vertex 0 -6.99873778920377 14.658415799317963
      vertex 0 6.99873778920377 14.658415799317963
      vertex 0 7.497847693386823 13.978180387126795
    endloop
  endfacet
  facet normal -1 0 0
    outer loop
      vertex 0 -6.438122725681148 15.288924850009574
      vertex 0 6.438122725681148 15.288924850009574
      vertex 0 6.99873778920377 14.658415799317963
    endloop
  endfacet
  facet normal 0 0.2776400013874993 0.9606851875768406
    outer loop
      vertex 0 2.0907482097148486 17.753786147923318
      vertex 1 2.901278998450385 17.51954107761391
      vertex 0 2.901278998450385 17.51954107761391
    endloop
  endfacet
  facet normal 0 0.36638003816824655 0.9304652963070864
    outer loop
      vertex 0 2.901278998450385 17.51954107761391
      vertex 1 3.6863132430285557 17.210425973984073
      vertex 0 3.6863132430285557 17.210425973984073
    endloop
  endfacet
  facet normal 0 0.45190031399993347 0.8920684425573867
    outer loop
      vertex 0 4.438952034281165 16.829157351679115
      vertex 0 3.6863132430285557 17.210425973984073
      vertex 1 4.438952034281165 16.829157351679115
    endloop
  endfacet
  facet normal 0 0.09364148953435131 0.9956059820218981
    outer loop
      vertex 0 0.4218503622294614 17.990108023371405
      vertex 1 0.4218503622294614 17.990108023371405
      vertex 1 1.2618438505369696 17.91110263081186
    endloop
  endfacet
  facet normal 0 0.1864600542916831 0.9824625428755758
    outer loop
      vertex 0 1.2618438505369696 17.91110263081186
      vertex 1 1.2618438505369696 17.91110263081186
      vertex 1 2.0907482097148486 17.753786147923318
    endloop
  endfacet
  facet normal 0 0.2776400013874993 0.9606851875768406
    outer loop
      vertex 0 2.0907482097148486 17.753786147923318
      vertex 1 2.0907482097148486 17.753786147923318
      vertex 1 2.901278998450385 17.51954107761391
    endloop
  endfacet
  facet normal 0 0.36638003816824655 0.9304652963070864
    outer loop
      vertex 0 2.901278998450385 17.51954107761391
      vertex 1 2.901278998450385 17.51954107761391
      vertex 1 3.6863132430285557 17.210425973984073
    endloop
  endfacet
  facet normal 0 0.45190031399993347 0.8920684425573867
    outer loop
      vertex 0 3.6863132430285557 17.210425973984073
      vertex 1 3.6863132430285557 17.210425973984073
      vertex 1 4.438952034281165 16.829157351679115
    endloop
  endfacet
  facet normal 0 0.5334492736235733 0.8458320592590955
    outer loop
      vertex 0 4.438952034281165 16.829157351679115
      vertex 1 5.152581155448648 16.37908581306082
      vertex 0 5.152581155448648 16.37908581306082
    endloop
  endfacet
  facet normal 5.921535286125593e-16 0.6103102618497901 0.7921624734111309
    outer loop
      vertex 0 5.152581155448648 16.37908581306082
      vertex 1 5.75 15.91881299821504
      vertex 0 5.820929208154787 15.86416660299344
    endloop
  endfacet
  facet normal 0 0.5334492736235733 0.8458320592590955
    outer loop
      vertex 0 4.438952034281165 16.829157351679115
      vertex 1 4.438952034281165 16.829157351679115
      vertex 1 5.152581155448648 16.37908581306082
    endloop
  endfacet
  facet normal 0 0.6103102618497906 0.7921624734111303
    outer loop
      vertex 0 5.152581155448648 16.37908581306082
      vertex 1 5.152581155448648 16.37908581306082
      vertex 1 5.75 15.91881299821504
    endloop
  endfacet
  facet normal 1 0 0
    outer loop
      vertex 1 -5.75 14.75
      vertex 1 2 7.5
      vertex 1 5.75 14.75
    endloop
  endfacet
  facet normal 1 0 0
    outer loop
      vertex 1 -5.75 14.75
      vertex 1 5.75 14.75
      vertex 1 5.152581155448648 16.37908581306082
    endloop
  endfacet
  facet normal 1 0 0
    outer loop
      vertex 1 -5.75 14.75
      vertex 1 3.6863132430285557 17.210425973984073
      vertex 1 2.901278998450385 17.51954107761391
    endloop
  endfacet
  facet normal 1 0 0
    outer loop
      vertex 1 -5.75 14.75
      vertex 1 4.438952034281165 16.829157351679115
      vertex 1 3.6863132430285557 17.210425973984073
    endloop
  endfacet
  facet normal 1 0 0
    outer loop
      vertex 1 -5.75 14.75
      vertex 1 5.152581155448648 16.37908581306082
      vertex 1 4.438952034281165 16.829157351679115
    endloop
  endfacet
  facet normal 0 0.9975275721840102 0.07027618894529082
    outer loop
      vertex 0 8.997526665988342 9.210983162429345
      vertex 0 8.938234594462989 10.052597897748742
      vertex 3.5 8.997526665988342 9.210983162429345
    endloop
  endfacet
  facet normal 0 0.986563651086546 0.16337736181853293
    outer loop
      vertex 0 8.938234594462989 10.052597897748742
      vertex 0 8.800392995936505 10.884962364895298
      vertex 3.5 8.938234594462989 10.052597897748742
    endloop
  endfacet
  facet normal 0 0.966929773150251 0.255042768561675
    outer loop
      vertex 0 8.800392995936505 10.884962364895298
      vertex 0 8.58521322733301 11.700761715003066
      vertex 3.5 8.800392995936505 10.884962364895298
    endloop
  endfacet
  facet normal 0 0.9387984816003867 0.3444668502843318
    outer loop
      vertex 0 8.58521322733301 11.700761715003066
      vertex 0 8.294586296196037 12.492826674050248
      vertex 3.5 8.58521322733301 11.700761715003066
    endloop
  endfacet
  facet normal 0 0.9024169952385883 0.4308637449409705
    outer loop
      vertex 0 8.294586296196037 12.492826674050248
      vertex 0 7.931066242446256 13.254196546697088
      vertex 3.5 8.294586296196037 12.492826674050248
    endloop
  endfacet
  facet normal 1 0 0
    outer loop
      vertex 1 5.75 14.75
      vertex 1 5.75 15.91881299821504
      vertex 1 5.152581155448648 16.37908581306082
    endloop
  endfacet
  facet normal 0 0.6818078215504385 0.7315313352636682
    outer loop
      vertex 0 6.438122725681148 15.288924850009574
      vertex 0 5.820929208154787 15.86416660299344
      vertex 3.5 6.438122725681148 15.288924850009574
    endloop
  endfacet
  facet normal -1.1275670959045718e-15 0.6103102618497745 0.7921624734111429
    outer loop
      vertex 0 5.820929208154787 15.86416660299344
      vertex 1 5.75 15.91881299821504
      vertex 2.25 5.75 15.918812998215042
    endloop
  endfacet
  facet normal 0 0.8581050358751433 0.5134741935148435
    outer loop
      vertex 0 7.931066242446256 13.254196546697088
      vertex 0 7.497847693386823 13.978180387126795
      vertex 3.5 7.931066242446256 13.254196546697088
    endloop
  endfacet
  facet normal 0 0.8062520186022312 0.5915722124135206
    outer loop
      vertex 0 7.497847693386823 13.978180387126795
      vertex 0 6.99873778920377 14.658415799317963
      vertex 3.5 7.497847693386823 13.978180387126795
    endloop
  endfacet
  facet normal 0 0.7473136296000763 0.6644714734388227
    outer loop
      vertex 0 6.438122725681148 15.288924850009574
      vertex 3.5 6.99873778920377 14.658415799317963
      vertex 0 6.99873778920377 14.658415799317963
    endloop
  endfacet
  facet normal 0 -1 0
    outer loop
      vertex 1 5.75 14.75
      vertex 2.25 5.75 15.918812998215042
      vertex 1 5.75 15.91881299821504
    endloop
  endfacet
  facet normal 0 -0.7776375321337519 -0.6287128665908851
    outer loop
      vertex 0 -6.725822666400692 3.019756739050602
      vertex 3.5 -6.725822666400692 3.019756739050602
      vertex 3.5 -7.2562681674200675 3.675850088278297
    endloop
  endfacet
  facet normal 0 -0.8330941881540913 -0.5531311541251999
    outer loop
      vertex 0 -7.2562681674200675 3.675850088278297
      vertex 3.5 -7.2562681674200675 3.675850088278297
      vertex 3.5 -7.722945322876299 4.378732258366423
    endloop
  endfacet
  facet normal 0 -0.6467699120171992 -0.7626851781103815
    outer loop
      vertex 0 -5.492792356648131 1.870537739299837
      vertex 3.5 -5.492792356648131 1.870537739299837
      vertex 3.5 -6.136270393953943 2.416217982626982
    endloop
  endfacet
  facet normal 0 -0.5725090172720712 -0.8198984236734251
    outer loop
      vertex 0 -4.801043462612133 1.3875114666681245
      vertex 3.5 -4.801043462612133 1.3875114666681245
      vertex 3.5 -5.492792356648131 1.870537739299837
    endloop
  endfacet
  facet normal 0 -0.7153469695201277 -0.6987694277788414
    outer loop
      vertex 0 -6.136270393953943 2.416217982626982
      vertex 3.5 -6.136270393953943 2.416217982626982
      vertex 3.5 -6.725822666400692 3.019756739050602
    endloop
  endfacet
  facet normal 0 1 0
    outer loop
      vertex 1 -5.75 3.25
      vertex 2.25 -5.75 14.75
      vertex 2.25 -5.75 3.25
    endloop
  endfacet
  facet normal 0 -0.9216206995773374 -0.3880918526722499
    outer loop
      vertex 0 -8.121752957147296 5.122226295531268
      vertex 3.5 -8.121752957147296 5.122226295531268
      vertex 3.5 -8.449186334403478 5.899798347441007
    endloop
  endfacet
  facet normal 0 -0.9539125808147789 -0.3000846350003414
    outer loop
      vertex 0 -8.449186334403478 5.899798347441007
      vertex 3.5 -8.449186334403478 5.899798347441007
      vertex 3.5 -8.702367958352255 6.704615082944908
    endloop
  endfacet
  facet normal 0 -0.881229582494029 -0.47268850518856403
    outer loop
      vertex 0 -7.722945322876299 4.378732258366423
      vertex 3.5 -7.722945322876299 4.378732258366423
      vertex 3.5 -8.121752957147296 5.122226295531268
    endloop
  endfacet
  facet normal 0 -0.9778214439929453 -0.2094402627661433
    outer loop
      vertex 0 -8.702367958352255 6.704615082944908
      vertex 3.5 -8.702367958352255 6.704615082944908
      vertex 3.5 -8.879072859778917 7.529603743633226
    endloop
  endfacet
  facet normal 0 -0.9931371771625542 -0.11695532197208314
    outer loop
      vertex 0 -8.879072859778917 7.529603743633226
      vertex 3.5 -8.879072859778917 7.529603743633226
      vertex 3.5 -8.97774814965609 8.367514299492361
    endloop
  endfacet
  facet normal 0 -0.9997251851098159 -0.023442573603260027
    outer loop
      vertex 0 -8.97774814965609 8.367514299492361
      vertex 3.5 -8.97774814965609 8.367514299492361
      vertex 3.5 -8.997526665988342 9.210983162429345
    endloop
  endfacet
  facet normal -1 0 0
    outer loop
      vertex 2.25 -5.75 3.25
      vertex 2.25 -4 14.75
      vertex 2.25 -4 3.25
    endloop
  endfacet
  facet normal 0 -0.23230535663498358 -0.972642905324813
    outer loop
      vertex 3.5 -2.498760012487501 0.3538333118084367
      vertex 1 -2 0.2347098164928718
      vertex 1 -1.6781404886251337 0.15783711411981471
    endloop
  endfacet
  facet normal 0 -0.14020487228188533 -0.9901225145346512
    outer loop
      vertex 3.5 -1.6781404886251337 0.15783711411981471
      vertex 1 -1.6781404886251337 0.15783711411981471
      vertex 1 -0.8427734058091585 0.03954616180291737
    endloop
  endfacet
  facet normal 0 -0.04687226246994026 -0.9989008914857114
    outer loop
      vertex 3.5 -0.8427734058091585 0.03954616180291737
      vertex 1 -0.8427734058091585 0.03954616180291737
      vertex 1 0 0
    endloop
  endfacet
  facet normal 0 0 1
    outer loop
      vertex 1 5.75 3.25
      vertex 2.25 -5.75 3.25
      vertex 2.25 -4 3.25
    endloop
  endfacet
  facet normal 0 -0.4932168926979077 -0.8699063724087902
    outer loop
      vertex 0 -4.067102825999403 0.9713840169835208
      vertex 3.5 -4.067102825999403 0.9713840169835208
      vertex 3.5 -4.801043462612133 1.3875114666681245
    endloop
  endfacet
  facet normal 0 -0.40959036033650686 -0.9122695526648965
    outer loop
      vertex 0 -3.297420343514213 0.6258123332362189
      vertex 3.5 -3.297420343514213 0.6258123332362189
      vertex 3.5 -4.067102825999403 0.9713840169835208
    endloop
  endfacet
  facet normal 0 -0.3223643331611529 -0.9466156752904344
    outer loop
      vertex 0 -2.498760012487501 0.3538333118084367
      vertex 3.5 -2.498760012487501 0.3538333118084367
      vertex 3.5 -3.297420343514213 0.6258123332362189
    endloop
  endfacet
  facet normal 1 0 0
    outer loop
      vertex 3.5 -8.121752957147296 5.122226295531268
      vertex 3.5 -4 14.75
      vertex 3.5 -8.449186334403478 5.899798347441007
    endloop
  endfacet
  facet normal 1 0 0
    outer loop
      vertex 3.5 -7.722945322876299 4.378732258366423
      vertex 3.5 -7.2562681674200675 3.675850088278297
      vertex 3.5 -4 14.75
    endloop
  endfacet
  facet normal 1 0 0
    outer loop
      vertex 3.5 -7.2562681674200675 3.675850088278297
      vertex 3.5 -6.725822666400692 3.019756739050602
      vertex 3.5 -4 14.75
    endloop
  endfacet
  facet normal 1 0 0
    outer loop
      vertex 3.5 -7.722945322876299 4.378732258366423
      vertex 3.5 -4 14.75
      vertex 3.5 -8.121752957147296 5.122226295531268
    endloop
  endfacet
  facet normal 1 0 0
    outer loop
      vertex 3.5 -6.725822666400692 3.019756739050602
      vertex 3.5 -4 3.25
      vertex 3.5 -4 14.75
    endloop
  endfacet
  facet normal 0 -0.23230535663498353 -0.9726429053248129
    outer loop
      vertex 3.5 -2.498760012487501 0.3538333118084367
      vertex 1 -1.6781404886251337 0.15783711411981471
      vertex 3.5 -1.6781404886251337 0.15783711411981471
    endloop
  endfacet
  facet normal 0 -0.14020487228188533 -0.9901225145346512
    outer loop
      vertex 3.5 -1.6781404886251337 0.15783711411981471
      vertex 1 -0.8427734058091585 0.03954616180291737
      vertex 3.5 -0.8427734058091585 0.03954616180291737
    endloop
  endfacet
  facet normal 0 -0.04687226246994026 -0.9989008914857114
    outer loop
      vertex 3.5 -0.8427734058091585 0.03954616180291737
      vertex 1 0 0
      vertex 3.5 0 0
    endloop
  endfacet
  facet normal 0 0 1
    outer loop
      vertex 2.25 -4 3.25
      vertex 3.5 -4 3.25
      vertex 2.25 4 3.25
    endloop
  endfacet
  facet normal 1 0 0
    outer loop
      vertex 3.5 -4.801043462612133 1.3875114666681245
      vertex 3.5 -4.067102825999403 0.9713840169835208
      vertex 3.5 4.067102825999405 0.9713840169835208
    endloop
  endfacet
  facet normal 1 0 0
    outer loop
      vertex 3.5 -4.067102825999403 0.9713840169835208
      vertex 3.5 -3.297420343514213 0.6258123332362189
      vertex 3.5 3.297420343514216 0.6258123332362207
    endloop
  endfacet
  facet normal 1 0 0
    outer loop
      vertex 3.5 -5.492792356648131 1.870537739299837
      vertex 3.5 -4.801043462612133 1.3875114666681245
      vertex 3.5 4.8010434626121326 1.3875114666681228
    endloop
  endfacet
  facet normal 1 0 0
    outer loop
      vertex 3.5 -5.492792356648131 1.870537739299837
      vertex 3.5 5.4927923566481285 1.8705377392998361
      vertex 3.5 -6.136270393953943 2.416217982626982
    endloop
  endfacet
  facet normal 1 0 0
    outer loop
      vertex 3.5 -3.297420343514213 0.6258123332362189
      vertex 3.5 -2.498760012487501 0.3538333118084367
      vertex 3.5 2.498760012487505 0.35383331180843847
    endloop
  endfacet
  facet normal 1 0 0
    outer loop
      vertex 3.5 -2.498760012487501 0.3538333118084367
      vertex 3.5 -1.6781404886251337 0.15783711411981471
      vertex 3.5 1.6781404886251308 0.15783711411981471
    endloop
  endfacet
  facet normal 1 0 0
    outer loop
      vertex 3.5 -1.6781404886251337 0.15783711411981471
      vertex 3.5 -0.8427734058091585 0.03954616180291737
      vertex 3.5 0.842773405809157 0.03954616180291737
    endloop
  endfacet
  facet normal 1 0 0
    outer loop
      vertex 3.5 -6.725822666400692 3.019756739050602
      vertex 3.5 -6.136270393953943 2.416217982626982
      vertex 3.5 6.136270393953939 2.4162179826269794
    endloop
  endfacet
  facet normal 1 0 0
    outer loop
      vertex 3.5 -6.725822666400692 3.019756739050602
      vertex 3.5 6.725822666400694 3.019756739050605
      vertex 3.5 -4 3.25
    endloop
  endfacet
  facet normal 0 1 0
    outer loop
      vertex 2.25 -4 3.25
      vertex 3.5 -4 14.75
      vertex 3.5 -4 3.25
    endloop
  endfacet
  facet normal 0 -0.99752757218401 0.07027618894529276
    outer loop
      vertex 0 -8.997526665988342 9.210983162429345
      vertex 3.5 -8.997526665988342 9.210983162429345
      vertex 3.5 -8.938234594462987 10.052597897748743
    endloop
  endfacet
  facet normal 0 -0.9865636510865465 0.16337736181853021
    outer loop
      vertex 0 -8.938234594462987 10.052597897748743
      vertex 3.5 -8.938234594462987 10.052597897748743
      vertex 3.5 -8.800392995936505 10.884962364895303
    endloop
  endfacet
  facet normal 0 -0.9669297731502505 0.2550427685616766
    outer loop
      vertex 0 -8.800392995936505 10.884962364895303
      vertex 3.5 -8.800392995936505 10.884962364895303
      vertex 3.5 -8.58521322733301 11.700761715003066
    endloop
  endfacet
  facet normal 0 -0.9387984816003865 0.3444668502843325
    outer loop
      vertex 0 -8.58521322733301 11.700761715003066
      vertex 3.5 -8.58521322733301 11.700761715003066
      vertex 3.5 -8.294586296196037 12.492826674050246
    endloop
  endfacet
  facet normal 0 -0.9024169952385886 0.4308637449409697
    outer loop
      vertex 0 -8.294586296196037 12.492826674050246
      vertex 3.5 -8.294586296196037 12.492826674050246
      vertex 3.5 -7.931066242446256 13.254196546697088
    endloop
  endfacet
  facet normal -1 0 0
    outer loop
      vertex 2.25 -5.75 3.25
      vertex 2.25 -5.75 14.75
      vertex 2.25 -4 14.75
    endloop
  endfacet
  facet normal 0 1 0
    outer loop
      vertex 2.25 -5.75 14.75
      vertex 1 -5.75 15.91881299821504
      vertex 2.25 -5.75 15.91881299821504
    endloop
  endfacet
  facet normal 0 -0.8581050358751433 0.5134741935148435
    outer loop
      vertex 0 -7.931066242446256 13.254196546697088
      vertex 3.5 -7.931066242446256 13.254196546697088
      vertex 3.5 -7.497847693386823 13.978180387126795
    endloop
  endfacet
  facet normal 0 -0.8062520186022312 0.5915722124135206
    outer loop
      vertex 0 -7.497847693386823 13.978180387126795
      vertex 3.5 -7.497847693386823 13.978180387126795
      vertex 3.5 -6.99873778920377 14.658415799317963
    endloop
  endfacet
  facet normal 0 -0.7473136296000763 0.6644714734388227
    outer loop
      vertex 0 -6.99873778920377 14.658415799317963
      vertex 3.5 -6.99873778920377 14.658415799317963
      vertex 3.5 -6.438122725681148 15.288924850009574
    endloop
  endfacet
  facet normal 0 -0.6818078215504385 0.7315313352636682
    outer loop
      vertex 0 -6.438122725681148 15.288924850009574
      vertex 3.5 -6.438122725681148 15.288924850009574
      vertex 3.5 -5.820929208154787 15.86416660299344
    endloop
  endfacet
  facet normal -1 0 0
    outer loop
      vertex 2.25 -5.75 14.75
      vertex 2.25 -5.75 15.91881299821504
      vertex 2.25 -4 14.75
    endloop
  endfacet
  facet normal -1 0 0
    outer loop
      vertex 2.25 -4 14.75
      vertex 2.25 -5.75 15.91881299821504
      vertex 2.25 -5.152581155448648 16.37908581306082
    endloop
  endfacet
  facet normal 0 -0.6103102618497844 0.7921624734111352
    outer loop
      vertex 3.5 -5.820929208154787 15.86416660299344
      vertex 2.25 -5.75 15.91881299821504
      vertex 1 -5.75 15.91881299821504
    endloop
  endfacet
  facet normal -1 0 0
    outer loop
      vertex 2.25 -4 14.75
      vertex 2.25 -5.152581155448648 16.37908581306082
      vertex 2.25 -4.438952034281165 16.829157351679115
    endloop
  endfacet
  facet normal -1 0 0
    outer loop
      vertex 2.25 -4 14.75
      vertex 2.25 -4.438952034281165 16.829157351679115
      vertex 2.25 -4 17.051519843904376
    endloop
  endfacet
  facet normal 1 0 0
    outer loop
      vertex 3.5 -8.449186334403478 5.899798347441007
      vertex 3.5 -4 14.75
      vertex 3.5 -8.702367958352255 6.704615082944908
    endloop
  endfacet
  facet normal 1 0 0
    outer loop
      vertex 3.5 -8.702367958352255 6.704615082944908
      vertex 3.5 -4 14.75
      vertex 3.5 -8.879072859778917 7.529603743633226
    endloop
  endfacet
  facet normal 1 0 0
    outer loop
      vertex 3.5 -8.97774814965609 8.367514299492361
      vertex 3.5 -4 14.75
      vertex 3.5 -8.997526665988342 9.210983162429345
    endloop
  endfacet
  facet normal 1 0 0
    outer loop
      vertex 3.5 -8.879072859778917 7.529603743633226
      vertex 3.5 -4 14.75
      vertex 3.5 -8.97774814965609 8.367514299492361
    endloop
  endfacet
  facet normal 1 0 0
    outer loop
      vertex 3.5 -8.997526665988342 9.210983162429345
      vertex 3.5 -4 14.75
      vertex 3.5 -8.938234594462987 10.052597897748743
    endloop
  endfacet
  facet normal 1 0 0
    outer loop
      vertex 3.5 -8.938234594462987 10.052597897748743
      vertex 3.5 -4 14.75
      vertex 3.5 -8.800392995936505 10.884962364895303
    endloop
  endfacet
  facet normal 1 0 0
    outer loop
      vertex 3.5 -8.800392995936505 10.884962364895303
      vertex 3.5 -4 14.75
      vertex 3.5 -8.58521322733301 11.700761715003066
    endloop
  endfacet
  facet normal 1 0 0
    outer loop
      vertex 3.5 -8.58521322733301 11.700761715003066
      vertex 3.5 -4 14.75
      vertex 3.5 -8.294586296196037 12.492826674050246
    endloop
  endfacet
  facet normal 0 -0.6103102618497908 0.7921624734111304
    outer loop
      vertex 3.5 -5.152581155448648 16.37908581306082
      vertex 2.25 -5.152581155448648 16.37908581306082
      vertex 2.25 -5.75 15.91881299821504
    endloop
  endfacet
  facet normal 0 -0.5334492736235733 0.8458320592590955
    outer loop
      vertex 3.5 -4.438952034281165 16.829157351679115
      vertex 2.25 -4.438952034281165 16.829157351679115
      vertex 2.25 -5.152581155448648 16.37908581306082
    endloop
  endfacet
  facet normal 1 0 0
    outer loop
      vertex 3.5 -8.294586296196037 12.492826674050246
      vertex 3.5 -4 14.75
      vertex 3.5 -7.931066242446256 13.254196546697088
    endloop
  endfacet
  facet normal 1 0 0
    outer loop
      vertex 3.5 -7.931066242446256 13.254196546697088
      vertex 3.5 -4 14.75
      vertex 3.5 -7.497847693386823 13.978180387126795
    endloop
  endfacet
  facet normal 1 0 0
    outer loop
      vertex 3.5 -7.497847693386823 13.978180387126795
      vertex 3.5 -4 14.75
      vertex 3.5 -6.99873778920377 14.658415799317963
    endloop
  endfacet
  facet normal 1 0 0
    outer loop
      vertex 3.5 -6.99873778920377 14.658415799317963
      vertex 3.5 -4 14.75
      vertex 3.5 -6.438122725681148 15.288924850009574
    endloop
  endfacet
  facet normal 1 0 0
    outer loop
      vertex 3.5 -6.438122725681148 15.288924850009574
      vertex 3.5 -4 14.75
      vertex 3.5 -4 17.051519843904376
    endloop
  endfacet
  facet normal -5.066202411463007e-16 -0.6103102618497901 0.7921624734111309
    outer loop
      vertex 3.5 -5.820929208154787 15.86416660299344
      vertex 3.5 -5.152581155448648 16.37908581306082
      vertex 2.25 -5.75 15.91881299821504
    endloop
  endfacet
  facet normal 0 -0.5334492736235733 0.8458320592590955
    outer loop
      vertex 3.5 -5.152581155448648 16.37908581306082
      vertex 3.5 -4.438952034281165 16.829157351679115
      vertex 2.25 -5.152581155448648 16.37908581306082
    endloop
  endfacet
  facet normal 1 0 0
    outer loop
      vertex 3.5 -6.438122725681148 15.288924850009574
      vertex 3.5 -4 17.051519843904376
      vertex 3.5 -5.820929208154787 15.86416660299344
    endloop
  endfacet
  facet normal 1 0 0
    outer loop
      vertex 3.5 -5.820929208154787 15.86416660299344
      vertex 3.5 -4 17.051519843904376
      vertex 3.5 -5.152581155448648 16.37908581306082
    endloop
  endfacet
  facet normal 1 0 0
    outer loop
      vertex 3.5 -5.152581155448648 16.37908581306082
      vertex 3.5 -4 17.051519843904376
      vertex 3.5 -4.438952034281165 16.829157351679115
    endloop
  endfacet
  facet normal 0 1 0
    outer loop
      vertex 2.25 -4 3.25
      vertex 2.25 -4 14.75
      vertex 3.5 -4 14.75
    endloop
  endfacet
  facet normal 0 1 0
    outer loop
      vertex 2.25 -4 14.75
      vertex 2.25 -4 17.051519843904376
      vertex 3.5 -4 17.051519843904376
    endloop
  endfacet
  facet normal 0 -0.451900313999934 0.8920684425573864
    outer loop
      vertex 3.5 -4.438952034281165 16.829157351679115
      vertex 2.25 -4 17.051519843904376
      vertex 2.25 -4.438952034281165 16.829157351679115
    endloop
  endfacet
  facet normal 0 1 0
    outer loop
      vertex 2.25 -4 14.75
      vertex 3.5 -4 17.051519843904376
      vertex 3.5 -4 14.75
    endloop
  endfacet
  facet normal 0 -0.451900313999934 0.8920684425573864
    outer loop
      vertex 3.5 -4.438952034281165 16.829157351679115
      vertex 3.5 -4 17.051519843904376
      vertex 2.25 -4 17.051519843904376
    endloop
  endfacet
  facet normal 0 0.046872262469940335 -0.9989008914857114
    outer loop
      vertex 3.5 0 0
      vertex 1 0 0
      vertex 1 0.842773405809157 0.03954616180291737
    endloop
  endfacet
  facet normal 0 0.14020487228188555 -0.9901225145346512
    outer loop
      vertex 3.5 0.842773405809157 0.03954616180291737
      vertex 1 0.842773405809157 0.03954616180291737
      vertex 1 1.6781404886251308 0.15783711411981471
    endloop
  endfacet
  facet normal 0 0.23230535663498383 -0.9726429053248129
    outer loop
      vertex 3.5 1.6781404886251308 0.15783711411981471
      vertex 1 1.6781404886251308 0.15783711411981471
      vertex 1 2 0.23470981649287256
    endloop
  endfacet
  facet normal 0 0 1
    outer loop
      vertex 1 5.75 3.25
      vertex 2.25 -4 3.25
      vertex 2.25 4 3.25
    endloop
  endfacet
  facet normal 0 0.2323053566349837 -0.9726429053248128
    outer loop
      vertex 0 2.498760012487505 0.35383331180843847
      vertex 3.5 2.498760012487505 0.35383331180843847
      vertex 3.5 1.6781404886251308 0.15783711411981471
    endloop
  endfacet
  facet normal 0 0.32236433316115326 -0.9466156752904344
    outer loop
      vertex 0 3.297420343514216 0.6258123332362207
      vertex 3.5 3.297420343514216 0.6258123332362207
      vertex 3.5 2.498760012487505 0.35383331180843847
    endloop
  endfacet
  facet normal 0 0.40959036033650564 -0.9122695526648971
    outer loop
      vertex 0 4.067102825999405 0.9713840169835208
      vertex 3.5 4.067102825999405 0.9713840169835208
      vertex 3.5 3.297420343514216 0.6258123332362207
    endloop
  endfacet
  facet normal 0 0 1
    outer loop
      vertex 1 5.75 3.25
      vertex 2.25 4 3.25
      vertex 2.25 5.75 3.25
    endloop
  endfacet
  facet normal 0 0.4932168926979074 -0.8699063724087903
    outer loop
      vertex 0 4.8010434626121326 1.3875114666681228
      vertex 3.5 4.8010434626121326 1.3875114666681228
      vertex 3.5 4.067102825999405 0.9713840169835208
    endloop
  endfacet
  facet normal 0 0.5725090172720728 -0.8198984236734239
    outer loop
      vertex 0 5.4927923566481285 1.8705377392998361
      vertex 3.5 5.4927923566481285 1.8705377392998361
      vertex 3.5 4.8010434626121326 1.3875114666681228
    endloop
  endfacet
  facet normal 0 0.6467699120171986 -0.7626851781103821
    outer loop
      vertex 0 6.136270393953939 2.4162179826269794
      vertex 3.5 6.136270393953939 2.4162179826269794
      vertex 3.5 5.4927923566481285 1.8705377392998361
    endloop
  endfacet
  facet normal 0 0.7153469695201277 -0.6987694277788415
    outer loop
      vertex 0 6.725822666400694 3.019756739050605
      vertex 3.5 6.725822666400694 3.019756739050605
      vertex 3.5 6.136270393953939 2.4162179826269794
    endloop
  endfacet
  facet normal 0 0.777637532133752 -0.628712866590885
    outer loop
      vertex 0 7.256268167420068 3.675850088278299
      vertex 3.5 7.256268167420068 3.675850088278299
      vertex 3.5 6.725822666400694 3.019756739050605
    endloop
  endfacet
  facet normal 0 0.8330941881540912 -0.5531311541252002
    outer loop
      vertex 0 7.722945322876299 4.378732258366423
      vertex 3.5 7.722945322876299 4.378732258366423
      vertex 3.5 7.256268167420068 3.675850088278299
    endloop
  endfacet
  facet normal -1 0 0
    outer loop
      vertex 2.25 4 3.25
      vertex 2.25 5.75 14.75
      vertex 2.25 5.75 3.25
    endloop
  endfacet
  facet normal 0 0.8812295824940286 -0.4726885051885649
    outer loop
      vertex 0 8.121752957147296 5.1222262955312665
      vertex 3.5 8.121752957147296 5.1222262955312665
      vertex 3.5 7.722945322876299 4.378732258366423
    endloop
  endfacet
  facet normal 0 0.9216206995773379 -0.3880918526722485
    outer loop
      vertex 0 8.449186334403477 5.8997983474410045
      vertex 3.5 8.449186334403477 5.8997983474410045
      vertex 3.5 8.121752957147296 5.1222262955312665
    endloop
  endfacet
  facet normal 0 0.9539125808147789 -0.30008463500034116
    outer loop
      vertex 0 8.702367958352255 6.704615082944912
      vertex 3.5 8.702367958352255 6.704615082944912
      vertex 3.5 8.449186334403477 5.8997983474410045
    endloop
  endfacet
  facet normal 0 0.9778214439929449 -0.20944026276614575
    outer loop
      vertex 0 8.879072859778919 7.529603743633228
      vertex 3.5 8.879072859778919 7.529603743633228
      vertex 3.5 8.702367958352255 6.704615082944912
    endloop
  endfacet
  facet normal 0 0.9931371771625543 -0.1169553219720808
    outer loop
      vertex 0 8.97774814965609 8.367514299492365
      vertex 3.5 8.97774814965609 8.367514299492365
      vertex 3.5 8.879072859778919 7.529603743633228
    endloop
  endfacet
  facet normal 0 0.9997251851098159 -0.023442573603260127
    outer loop
      vertex 0 8.997526665988342 9.210983162429345
      vertex 3.5 8.997526665988342 9.210983162429345
      vertex 3.5 8.97774814965609 8.367514299492365
    endloop
  endfacet
  facet normal 0 0.046872262469940335 -0.9989008914857114
    outer loop
      vertex 3.5 0 0
      vertex 1 0.842773405809157 0.03954616180291737
      vertex 3.5 0.842773405809157 0.03954616180291737
    endloop
  endfacet
  facet normal 0 0.14020487228188555 -0.9901225145346512
    outer loop
      vertex 3.5 0.842773405809157 0.03954616180291737
      vertex 1 1.6781404886251308 0.15783711411981471
      vertex 3.5 1.6781404886251308 0.15783711411981471
    endloop
  endfacet
  facet normal 1 0 0
    outer loop
      vertex 3.5 -0.8427734058091585 0.03954616180291737
      vertex 3.5 0 0
      vertex 3.5 0.842773405809157 0.03954616180291737
    endloop
  endfacet
  facet normal 1 0 0
    outer loop
      vertex 3.5 -1.6781404886251337 0.15783711411981471
      vertex 3.5 0.842773405809157 0.03954616180291737
      vertex 3.5 1.6781404886251308 0.15783711411981471
    endloop
  endfacet
  facet normal 1 0 0
    outer loop
      vertex 3.5 -2.498760012487501 0.3538333118084367
      vertex 3.5 1.6781404886251308 0.15783711411981471
      vertex 3.5 2.498760012487505 0.35383331180843847
    endloop
  endfacet
  facet normal 1 0 0
    outer loop
      vertex 3.5 -3.297420343514213 0.6258123332362189
      vertex 3.5 2.498760012487505 0.35383331180843847
      vertex 3.5 3.297420343514216 0.6258123332362207
    endloop
  endfacet
  facet normal 1 0 0
    outer loop
      vertex 3.5 -4.067102825999403 0.9713840169835208
      vertex 3.5 3.297420343514216 0.6258123332362207
      vertex 3.5 4.067102825999405 0.9713840169835208
    endloop
  endfacet
  facet normal 1 0 0
    outer loop
      vertex 3.5 -4.801043462612133 1.3875114666681245
      vertex 3.5 4.067102825999405 0.9713840169835208
      vertex 3.5 4.8010434626121326 1.3875114666681228
    endloop
  endfacet
  facet normal 1 0 0
    outer loop
      vertex 3.5 -5.492792356648131 1.870537739299837
      vertex 3.5 4.8010434626121326 1.3875114666681228
      vertex 3.5 5.4927923566481285 1.8705377392998361
    endloop
  endfacet
  facet normal 1 0 0
    outer loop
      vertex 3.5 -6.136270393953943 2.416217982626982
      vertex 3.5 5.4927923566481285 1.8705377392998361
      vertex 3.5 6.136270393953939 2.4162179826269794
    endloop
  endfacet
  facet normal 0 0 1
    outer loop
      vertex 2.25 4 3.25
      vertex 3.5 -4 3.25
      vertex 3.5 4 3.25
    endloop
  endfacet
  facet normal 1 0 0
    outer loop
      vertex 3.5 -6.725822666400692 3.019756739050602
      vertex 3.5 6.136270393953939 2.4162179826269794
      vertex 3.5 6.725822666400694 3.019756739050605
    endloop
  endfacet
  facet normal 1 0 0
    outer loop
      vertex 3.5 6.725822666400694 3.019756739050605
      vertex 3.5 4 3.25
      vertex 3.5 -4 3.25
    endloop
  endfacet
  facet normal 0 -1 0
    outer loop
      vertex 2.25 4 3.25
      vertex 3.5 4 3.25
      vertex 2.25 4 14.75
    endloop
  endfacet
  facet normal 1 0 0
    outer loop
      vertex 3.5 6.725822666400694 3.019756739050605
      vertex 3.5 7.256268167420068 3.675850088278299
      vertex 3.5 4 3.25
    endloop
  endfacet
  facet normal 1 0 0
    outer loop
      vertex 3.5 7.256268167420068 3.675850088278299
      vertex 3.5 7.722945322876299 4.378732258366423
      vertex 3.5 4 3.25
    endloop
  endfacet
  facet normal 1 0 0
    outer loop
      vertex 3.5 7.722945322876299 4.378732258366423
      vertex 3.5 8.121752957147296 5.1222262955312665
      vertex 3.5 4 3.25
    endloop
  endfacet
  facet normal 1 0 0
    outer loop
      vertex 3.5 8.121752957147296 5.1222262955312665
      vertex 3.5 8.449186334403477 5.8997983474410045
      vertex 3.5 4 3.25
    endloop
  endfacet
  facet normal 1 0 0
    outer loop
      vertex 3.5 8.449186334403477 5.8997983474410045
      vertex 3.5 8.702367958352255 6.704615082944912
      vertex 3.5 4 3.25
    endloop
  endfacet
  facet normal 1 0 0
    outer loop
      vertex 3.5 8.702367958352255 6.704615082944912
      vertex 3.5 8.879072859778919 7.529603743633228
      vertex 3.5 4 3.25
    endloop
  endfacet
  facet normal 1 0 0
    outer loop
      vertex 3.5 8.879072859778919 7.529603743633228
      vertex 3.5 8.97774814965609 8.367514299492365
      vertex 3.5 4 3.25
    endloop
  endfacet
  facet normal 1 0 0
    outer loop
      vertex 3.5 8.97774814965609 8.367514299492365
      vertex 3.5 8.997526665988342 9.210983162429345
      vertex 3.5 4 3.25
    endloop
  endfacet
  facet normal 1 0 0
    outer loop
      vertex 3.5 8.997526665988342 9.210983162429345
      vertex 3.5 8.938234594462989 10.052597897748742
      vertex 3.5 4 3.25
    endloop
  endfacet
  facet normal 1 0 0
    outer loop
      vertex 3.5 8.938234594462989 10.052597897748742
      vertex 3.5 8.800392995936505 10.884962364895298
      vertex 3.5 4 3.25
    endloop
  endfacet
  facet normal 1 0 0
    outer loop
      vertex 3.5 8.800392995936505 10.884962364895298
      vertex 3.5 8.58521322733301 11.700761715003066
      vertex 3.5 4 3.25
    endloop
  endfacet
  facet normal -1 0 0
    outer loop
      vertex 2.25 4 14.75
      vertex 2.25 4 17.051519843904376
      vertex 2.25 4.438952034281165 16.829157351679115
    endloop
  endfacet
  facet normal 0 -1 0
    outer loop
      vertex 1 5.75 14.75
      vertex 2.25 5.75 3.25
      vertex 2.25 5.75 14.75
    endloop
  endfacet
  facet normal -1 0 0
    outer loop
      vertex 2.25 4 3.25
      vertex 2.25 4 14.75
      vertex 2.25 5.75 14.75
    endloop
  endfacet
  facet normal 0 0.9975275721840102 0.07027618894529082
    outer loop
      vertex 0 8.938234594462989 10.052597897748742
      vertex 3.5 8.938234594462989 10.052597897748742
      vertex 3.5 8.997526665988342 9.210983162429345
    endloop
  endfacet
  facet normal 0 0.986563651086546 0.16337736181853293
    outer loop
      vertex 0 8.800392995936505 10.884962364895298
      vertex 3.5 8.800392995936505 10.884962364895298
      vertex 3.5 8.938234594462989 10.052597897748742
    endloop
  endfacet
  facet normal 0 0.9387984816003867 0.3444668502843318
    outer loop
      vertex 0 8.294586296196037 12.492826674050248
      vertex 3.5 8.294586296196037 12.492826674050248
      vertex 3.5 8.58521322733301 11.700761715003066
    endloop
  endfacet
  facet normal 0 0.966929773150251 0.255042768561675
    outer loop
      vertex 0 8.58521322733301 11.700761715003066
      vertex 3.5 8.58521322733301 11.700761715003066
      vertex 3.5 8.800392995936505 10.884962364895298
    endloop
  endfacet
  facet normal 0 0.9024169952385883 0.4308637449409705
    outer loop
      vertex 0 7.931066242446256 13.254196546697088
      vertex 3.5 7.931066242446256 13.254196546697088
      vertex 3.5 8.294586296196037 12.492826674050248
    endloop
  endfacet
  facet normal 0 -1 0
    outer loop
      vertex 1 5.75 14.75
      vertex 2.25 5.75 14.75
      vertex 2.25 5.75 15.918812998215042
    endloop
  endfacet
  facet normal 0 0.6103102618497969 0.7921624734111256
    outer loop
      vertex 0 5.820929208154787 15.86416660299344
      vertex 2.25 5.75 15.918812998215042
      vertex 3.5 5.820929208154787 15.86416660299344
    endloop
  endfacet
  facet normal -1 0 0
    outer loop
      vertex 2.25 4 14.75
      vertex 2.25 5.152581155448648 16.37908581306082
      vertex 2.25 5.75 14.75
    endloop
  endfacet
  facet normal -1 0 0
    outer loop
      vertex 2.25 5.75 14.75
      vertex 2.25 5.152581155448648 16.37908581306082
      vertex 2.25 5.75 15.918812998215042
    endloop
  endfacet
  facet normal 0 0.6818078215504385 0.7315313352636682
    outer loop
      vertex 0 5.820929208154787 15.86416660299344
      vertex 3.5 5.820929208154787 15.86416660299344
      vertex 3.5 6.438122725681148 15.288924850009574
    endloop
  endfacet
  facet normal 0 0.7473136296000763 0.6644714734388227
    outer loop
      vertex 0 6.438122725681148 15.288924850009574
      vertex 3.5 6.438122725681148 15.288924850009574
      vertex 3.5 6.99873778920377 14.658415799317963
    endloop
  endfacet
  facet normal -1 0 0
    outer loop
      vertex 2.25 4 14.75
      vertex 2.25 4.438952034281165 16.829157351679115
      vertex 2.25 5.152581155448648 16.37908581306082
    endloop
  endfacet
  facet normal 0 0.8062520186022312 0.5915722124135206
    outer loop
      vertex 0 6.99873778920377 14.658415799317963
      vertex 3.5 6.99873778920377 14.658415799317963
      vertex 3.5 7.497847693386823 13.978180387126795
    endloop
  endfacet
  facet normal 0 0.8581050358751433 0.5134741935148435
    outer loop
      vertex 0 7.497847693386823 13.978180387126795
      vertex 3.5 7.497847693386823 13.978180387126795
      vertex 3.5 7.931066242446256 13.254196546697088
    endloop
  endfacet
  facet normal 0 -1 0
    outer loop
      vertex 2.25 4 14.75
      vertex 3.5 4 3.25
      vertex 3.5 4 14.75
    endloop
  endfacet
  facet normal 0 -1 0
    outer loop
      vertex 2.25 4 14.75
      vertex 3.5 4 17.051519843904376
      vertex 2.25 4 17.051519843904376
    endloop
  endfacet
  facet normal 0 0.451900313999934 0.8920684425573864
    outer loop
      vertex 3.5 4.438952034281165 16.829157351679115
      vertex 2.25 4.438952034281165 16.829157351679115
      vertex 2.25 4 17.051519843904376
    endloop
  endfacet
  facet normal 0 -1 0
    outer loop
      vertex 2.25 4 14.75
      vertex 3.5 4 14.75
      vertex 3.5 4 17.051519843904376
    endloop
  endfacet
  facet normal 0 0.451900313999934 0.8920684425573864
    outer loop
      vertex 3.5 4.438952034281165 16.829157351679115
      vertex 2.25 4 17.051519843904376
      vertex 3.5 4 17.051519843904376
    endloop
  endfacet
  facet normal 1 0 0
    outer loop
      vertex 3.5 4.438952034281165 16.829157351679115
      vertex 3.5 4 17.051519843904376
      vertex 3.5 4 14.75
    endloop
  endfacet
  facet normal 1 0 0
    outer loop
      vertex 3.5 6.99873778920377 14.658415799317963
      vertex 3.5 4 14.75
      vertex 3.5 4 3.25
    endloop
  endfacet
  facet normal 1 0 0
    outer loop
      vertex 3.5 8.294586296196037 12.492826674050248
      vertex 3.5 7.931066242446256 13.254196546697088
      vertex 3.5 4 3.25
    endloop
  endfacet
  facet normal 1 0 0
    outer loop
      vertex 3.5 7.497847693386823 13.978180387126795
      vertex 3.5 6.99873778920377 14.658415799317963
      vertex 3.5 4 3.25
    endloop
  endfacet
  facet normal 1 0 0
    outer loop
      vertex 3.5 7.931066242446256 13.254196546697088
      vertex 3.5 7.497847693386823 13.978180387126795
      vertex 3.5 4 3.25
    endloop
  endfacet
  facet normal 1 0 0
    outer loop
      vertex 3.5 8.58521322733301 11.700761715003066
      vertex 3.5 8.294586296196037 12.492826674050248
      vertex 3.5 4 3.25
    endloop
  endfacet
  facet normal 0 0.5334492736235733 0.8458320592590955
    outer loop
      vertex 3.5 5.152581155448648 16.37908581306082
      vertex 2.25 5.152581155448648 16.37908581306082
      vertex 2.25 4.438952034281165 16.829157351679115
    endloop
  endfacet
  facet normal 6.919001666346733e-16 0.6103102618497892 0.7921624734111314
    outer loop
      vertex 3.5 5.820929208154787 15.86416660299344
      vertex 2.25 5.75 15.918812998215042
      vertex 2.25 5.152581155448648 16.37908581306082
    endloop
  endfacet
  facet normal 1 0 0
    outer loop
      vertex 3.5 5.152581155448648 16.37908581306082
      vertex 3.5 4 14.75
      vertex 3.5 5.820929208154787 15.86416660299344
    endloop
  endfacet
  facet normal 1 0 0
    outer loop
      vertex 3.5 6.438122725681148 15.288924850009574
      vertex 3.5 5.820929208154787 15.86416660299344
      vertex 3.5 4 14.75
    endloop
  endfacet
  facet normal 1 0 0
    outer loop
      vertex 3.5 6.438122725681148 15.288924850009574
      vertex 3.5 4 14.75
      vertex 3.5 6.99873778920377 14.658415799317963
    endloop
  endfacet
  facet normal 0 0.5334492736235733 0.8458320592590955
    outer loop
      vertex 3.5 4.438952034281165 16.829157351679115
      vertex 3.5 5.152581155448648 16.37908581306082
      vertex 2.25 4.438952034281165 16.829157351679115
    endloop
  endfacet
  facet normal 0 0.6103102618497901 0.7921624734111309
    outer loop
      vertex 3.5 5.152581155448648 16.37908581306082
      vertex 3.5 5.820929208154787 15.86416660299344
      vertex 2.25 5.152581155448648 16.37908581306082
    endloop
  endfacet
  facet normal 1 0 0
    outer loop
      vertex 3.5 4.438952034281165 16.829157351679115
      vertex 3.5 4 14.75
      vertex 3.5 5.152581155448648 16.37908581306082
    endloop
  endfacet
endsolid OpenSCAD_Model
